<svg xmlns="http://www.w3.org/2000/svg" viewBox="0 0 18 12">
  <rect width="18" height="12" fill="#012169"/>
  <path fill="#FFF" d="M0 0v1.6L5.8 6 0 10.4V12h1.6L9 7.2 16.4 12H18v-1.6L12.2 6 18 1.6V0h-1.6L9 4.8 1.6 0H0z"/>
  <path fill="#C8102E" d="M6.6 7.2 0 11.6V12h.9l7.1-4.7h.7L18 11.3V10l-6.5-4.3h-1L18 1.3V0h-.9L10 4.7h-.7L0 .7V2l6.6 4.4v.8z"/>
  <rect x="7.2" width="3.6" height="12" fill="#FFF"/>
  <rect y="4.2" width="18" height="3.6" fill="#FFF"/>
  <rect x="7.8" width="2.4" height="12" fill="#C8102E"/>
  <rect y="4.8" width="18" height="2.4" fill="#C8102E"/>
</svg>
