<svg xmlns="http://www.w3.org/2000/svg" width="110.275" height="56.127" viewBox="0 0 110.275 56.127">
    <g id="Logo" transform="translate(-15.4 -5.122)">
        <g id="Group_642" data-name="Group 642" transform="translate(15.4 5.122)">
            <path id="Path_684" data-name="Path 684"
                  d="M131.712,15.755a2.9,2.9,0,1,0,2.86,2.9,2.882,2.882,0,0,0-2.86-2.9m0,5.342a2.439,2.439,0,1,1,2.4-2.438,2.427,2.427,0,0,1-2.4,2.438"
                  transform="translate(-24.297 -2.97)" fill="#ba0c2f"/>
            <path id="Path_685" data-name="Path 685"
                  d="M133.2,18.441a.8.8,0,0,0-.856-.82h-1.032V20.3h.514V19.228h.371l.514,1.069h.6l-.589-1.151a.731.731,0,0,0,.48-.7m-.886.352h-.488v-.707h.488a.354.354,0,1,1,0,.707"
                  transform="translate(-24.76 -3.322)" fill="#ba0c2f"/>
            <path id="Path_686" data-name="Path 686"
                  d="M78.931,19.438c-2.922-.3-4.9,2.316-6.523,4.384,0-5.25-5-4.52-5-4.52a.592.592,0,0,0-.574.171A1.724,1.724,0,0,0,66.61,20.5c-.177,4.693-.6,9.383-.876,14.071q-.136,2.289-.251,4.579a6.245,6.245,0,0,0,1.17,4.615,6.331,6.331,0,0,0,4.361,1.929.288.288,0,0,0,.222-.072.114.114,0,0,0,.04-.082c-.016-.316-.028-.631-.04-.948-.063-1.784-.064-3.572-.014-5.357a29.635,29.635,0,0,1,1.156-9.023,7.91,7.91,0,0,1,1.934-3.185c.662-.641,1.9-1.63,2.88-1.413.682.153.954.953,1.593,1.253a2.474,2.474,0,0,0,1.81.08,3.739,3.739,0,0,0,2.477-2.924,3.512,3.512,0,0,0,.019-.814,4.52,4.52,0,0,0-4.161-3.771"
                  transform="translate(-12.344 -3.633)" fill="#ba0c2f"/>
            <path id="Path_687" data-name="Path 687"
                  d="M93.746,9.081A3.646,3.646,0,0,0,92.6,9a.931.931,0,0,0-.432.163,1.138,1.138,0,0,0-.361.855c-.054.557-.118,1.057-.171,1.459l-.012.42c-.043.544-.062,1.119-.059,1.815,0,.12-.035,2.847,4.954,2.833a.807.807,0,0,0,.91-.687l.289-2.559c.308-2.408-.844-3.63-3.975-4.219"
                  transform="translate(-17.266 -1.694)" fill="#ba0c2f"/>
            <path id="Path_688" data-name="Path 688"
                  d="M92.4,20.713c-.7-.235-1.164-.286-1.395-.153s-.346.5-.385,1.1c-.3,4.736-.855,9.462-1.261,14.192q-.179,2.1-.342,4.194a5.635,5.635,0,0,0,1.1,4.439,6.72,6.72,0,0,0,4.453,1.923.315.315,0,0,0,.231-.066.107.107,0,0,0,.041-.077c-.015-.531-.013-1.257-.009-1.772.043-5.946.852-12.039,1.471-17.95a5.223,5.223,0,0,0-3.91-5.834"
                  transform="translate(-16.778 -3.863)" fill="#ba0c2f"/>
            <path id="Path_689" data-name="Path 689"
                  d="M51.1,15.719a.459.459,0,0,0-.241-.057.764.764,0,0,0-.3.087c-1.412.682-3.095,1.433-4.764,2.148l-.135.056q.107-1.059.213-2.117c.084-.854.168-1.824.251-2.792h0C46.643,7.561,40.855,6.3,40.8,6.289a2.155,2.155,0,0,0-.3-.044.561.561,0,0,0-.617.5l-.271,2.921c-.3,3.439-.638,6.875-.952,10.312-.016.179-.034.359-.051.537-2.74.841-5.532,1.532-8.341,2.1q.018-2.485.032-4.969c.011-2.434.075-4.867.05-7.3-.021-2.18.214-4.858-.613-6.909a6.534,6.534,0,0,0-1.369-2.169A4.067,4.067,0,0,0,26.162.081c-4.427-.738-7.395,3.692-9.153,7.08-2.583,4.974-5.166,9.957-7.393,15.109q-.493,1.139-.979,2.293-3.987-.09-7.963-.527a.767.767,0,0,0-.314.019.475.475,0,0,0-.211.136.591.591,0,0,0-.138.354c-.174,1.738,1.8,2.2,3.013,2.562q2.048.607,4.141,1.039a99.982,99.982,0,0,0-4.84,15c-.021.1-.034.153-.034.153-.108.484-.049.792.172.915.908.495,4.293-.544,5.226-1.389a4.42,4.42,0,0,0,1.1-1.752l.01-.028c.019-.054.037-.109.055-.164.333-.983,1.961-5.728,4.451-11.84a54.163,54.163,0,0,0,6.531.187q2.022-.065,4.035-.28c-.011,2.2.028,4.4.155,6.6A12.605,12.605,0,0,0,24.651,39a7.642,7.642,0,0,0,7.31,5.337.193.193,0,0,0,.17-.271l-.824-1.854a15.474,15.474,0,0,1-.569-1.96,40.524,40.524,0,0,1-.518-8.878q0-1.741.014-3.483a54.934,54.934,0,0,0,7.892-2.42c-.133,1.494-.24,2.989-.273,4.487a18.306,18.306,0,0,0,.712,6.72A8.044,8.044,0,0,0,46.3,42.129a.2.2,0,0,0,.183-.28l-.88-1.9a15.6,15.6,0,0,1-.61-2.012,31.3,31.3,0,0,1-.321-9.423c.161-2.146.36-4.29.572-6.433a44.542,44.542,0,0,0,3.945-2.523l.209-.15c.988-.694,2.581-1.926,1.942-3.4a.571.571,0,0,0-.238-.29M21.625,23.961q-3.2.366-6.408.519a141.261,141.261,0,0,1,8.613-17.02c.123-.187.243-.368.359-.54a.232.232,0,0,1,.424.127c-.067,5.522-.441,11.073-.634,16.617-.785.106-1.569.207-2.353.3"
                  transform="translate(0 0)" fill="#ba0c2f"/>
            <path id="Path_690" data-name="Path 690"
                  d="M128.4,45.13a.548.548,0,0,0-.146-.33.46.46,0,0,0-.213-.119.774.774,0,0,0-.31-.007c-.3.043-.607.086-.923.127a5.189,5.189,0,0,1-3.515-.651c-1.177-.813-1.358-2.593-1.4-3.9a73.137,73.137,0,0,1,.64-8.721c.1-1.116.2-2.231.281-3.349a6.214,6.214,0,0,0-4.306-6.784,1.482,1.482,0,0,0-.241-.046.492.492,0,0,0-.5.5s-.083,2.618-.112,3.34c0-.019-.008-.04-.012-.059a5.5,5.5,0,0,0-2.493-3.495c-2.384-1.415-5.511-.748-7.668.772a13.408,13.408,0,0,0-4.8,6.5,19.434,19.434,0,0,0-.963,8.079,12.148,12.148,0,0,0,3.329,7.779c2.768,2.7,6.581,3.357,9.954.819a10.719,10.719,0,0,0,1.319-1.168,7.277,7.277,0,0,0,2.195,2.448,6.643,6.643,0,0,0,2.777,1.149l.049,0a7.8,7.8,0,0,0,1.3.1c3.27.1,4.771-1.074,5.289-1.619.015-.015.03-.032.045-.048l.011-.011c.028-.032.056-.064.083-.1s.043-.055.057-.075l.013-.018a.13.13,0,0,0,.015-.023,1.523,1.523,0,0,0,.257-1.1M116.532,33.564c-.057.361-.128.716-.21,1.058a15.175,15.175,0,0,1-1.818,4.716c-.841,1.287-1.72,2.618-3.407,2.609-3.961-.021-4.2-6.322-3.638-9.146a10.549,10.549,0,0,1,2.087-4.69c1.182-1.416,3.1-2.316,4.8-1.268,2.283,1.408,2.577,4.224,2.183,6.721"
                  transform="translate(-19.165 -3.932)" fill="#ba0c2f"/>
        </g>
        <g id="Group_641" data-name="Group 641" transform="translate(20.99 54.874)">
            <path id="Path_691" data-name="Path 691"
                  d="M10.247,63.912a.145.145,0,0,0-.1-.032l-.527.047a.134.134,0,0,0-.123.145l.131,1.471q-.9.08-1.805.165l-.136-1.47a.135.135,0,0,0-.148-.121l-.531.05a.138.138,0,0,0-.122.146l.353,3.738a.137.137,0,0,0,.049.089.139.139,0,0,0,.087.032h.011l.527-.049a.134.134,0,0,0,.122-.145L7.9,66.443q.9-.084,1.8-.164l.137,1.533a.136.136,0,0,0,.146.121l.522-.046a.138.138,0,0,0,.123-.145L10.3,64a.133.133,0,0,0-.048-.089"
                  transform="translate(-6.888 -61.796)" fill="#016e41"/>
            <path id="Path_692" data-name="Path 692"
                  d="M15.812,63.4l-.589.047a.138.138,0,0,0-.108.071q-.4.671-.79,1.342-.5-.6-1-1.2a.139.139,0,0,0-.117-.051l-.583.049a.132.132,0,0,0-.1.215c.484.587.974,1.183,1.455,1.771l.149,1.789a.134.134,0,0,0,.134.123h.011l.523-.043a.14.14,0,0,0,.091-.048.136.136,0,0,0,.032-.1l-.146-1.795c.385-.66.777-1.327,1.164-1.983a.134.134,0,0,0,0-.137.139.139,0,0,0-.125-.058"
                  transform="translate(-7.947 -61.707)" fill="#016e41"/>
            <path id="Path_693" data-name="Path 693"
                  d="M21.385,62.981l-.583.041a.131.131,0,0,0-.116.087c-.3.827-.612,1.667-.913,2.5h-.006c-.415-.768-.843-1.553-1.27-2.334a.135.135,0,0,0-.127-.07l-.562.044h-.021a.133.133,0,0,0-.111.068.129.129,0,0,0,0,.126c.69,1.226,1.379,2.461,2.051,3.673a.125.125,0,0,0,.114.069h.011l.057,0a.13.13,0,0,0,.115-.086c.49-1.3.992-2.627,1.493-3.934a.132.132,0,0,0-.013-.126.139.139,0,0,0-.121-.05"
                  transform="translate(-8.919 -61.627)" fill="#016e41"/>
            <path id="Path_694" data-name="Path 694"
                  d="M25.952,62.084h.026a.386.386,0,0,0-.024-.772h-.025a.389.389,0,0,0-.268.129.38.38,0,0,0-.1.278.394.394,0,0,0,.131.267.387.387,0,0,0,.256.1"
                  transform="translate(-10.41 -61.312)" fill="#016e41"/>
            <path id="Path_695" data-name="Path 695"
                  d="M24.208,62.2h.026a.394.394,0,0,0,.269-.133.385.385,0,0,0,.1-.282.379.379,0,0,0-.129-.259.393.393,0,0,0-.29-.1.385.385,0,0,0-.269.131.376.376,0,0,0-.093.278.389.389,0,0,0,.387.363"
                  transform="translate(-10.081 -61.334)" fill="#016e41"/>
            <path id="Path_696" data-name="Path 696"
                  d="M25.011,62.773a.127.127,0,0,0-.126-.068l-.058,0a.132.132,0,0,0-.116.086c-.5,1.3-1.015,2.619-1.516,3.928a.126.126,0,0,0,.121.176h.012l.494-.033a.2.2,0,0,0,.18-.142q.114-.307.23-.613.834-.057,1.668-.11.152.282.3.565l.007.015a.193.193,0,0,0,.2.115l.494-.031a.132.132,0,0,0,.112-.066.129.129,0,0,0,0-.126c-.652-1.215-1.325-2.459-2-3.7m.544,2.565-1.064.07q.224-.6.45-1.209.308.57.614,1.139"
                  transform="translate(-9.961 -61.575)" fill="#016e41"/>
            <path id="Path_697" data-name="Path 697"
                  d="M33.849,64.656a1.275,1.275,0,0,0,.776-1.2,1.219,1.219,0,0,0-.407-.85,1.288,1.288,0,0,0-.931-.329q-.819.044-1.638.089a.135.135,0,0,0-.128.141l.209,3.748a.138.138,0,0,0,.045.092.132.132,0,0,0,.089.034h.008l.523-.029a.138.138,0,0,0,.127-.141l-.077-1.418.59-.032q.415.723.828,1.448a.118.118,0,0,0,.118.059l.6-.031a.135.135,0,0,0,.117-.069.143.143,0,0,0-.007-.14q-.417-.688-.838-1.375m-.53-.568-.9.049-.058-1.075.906-.048a.552.552,0,0,1,.387.135.509.509,0,0,1,.18.36.554.554,0,0,1-.51.579"
                  transform="translate(-11.533 -61.494)" fill="#016e41"/>
            <path id="Path_698" data-name="Path 698"
                  d="M40.233,61.979a.138.138,0,0,0-.1-.037l-.544.023a.135.135,0,0,0-.13.14l.1,2.323a.8.8,0,1,1-1.607.065l-.105-2.317a.139.139,0,0,0-.044-.093.141.141,0,0,0-.1-.035l-.544.026a.137.137,0,0,0-.129.14l.111,2.357a1.584,1.584,0,0,0,1.605,1.512h.076a1.589,1.589,0,0,0,1.547-1.654l-.1-2.357a.133.133,0,0,0-.044-.092"
                  transform="translate(-12.573 -61.431)" fill="#016e41"/>
            <path id="Path_699" data-name="Path 699"
                  d="M44.8,61.706a2.068,2.068,0,0,0,.067,4.134h.076a2.068,2.068,0,0,0,1.361-3.573,2.089,2.089,0,0,0-1.5-.561m.071,3.345A1.273,1.273,0,0,1,43.94,62.9a1.268,1.268,0,0,1,.892-.409l.045,0a1.278,1.278,0,0,1,.043,2.556h-.045"
                  transform="translate(-13.659 -61.386)" fill="#016e41"/>
            <path id="Path_700" data-name="Path 700"
                  d="M51.2,63.481c.491-.577.975-1.143,1.439-1.685a.146.146,0,0,0-.117-.245l-.573.013a.163.163,0,0,0-.127.068c-.468.548-.924,1.083-1.358,1.594l-.038-1.462a.166.166,0,0,0-.051-.113.173.173,0,0,0-.118-.045l-.5.013a.163.163,0,0,0-.115.051.16.16,0,0,0-.045.116l.1,3.7a.162.162,0,0,0,.162.157h0l.5-.014a.166.166,0,0,0,.159-.166l-.044-1.655c.488.567.988,1.15,1.483,1.731a.143.143,0,0,0,.119.049h.006l.621-.015a.149.149,0,0,0,.136-.086.151.151,0,0,0-.019-.157c-.556-.635-1.1-1.256-1.625-1.846"
                  transform="translate(-14.942 -61.357)" fill="#016e41"/>
            <path id="Path_701" data-name="Path 701"
                  d="M56.562,61.486a.122.122,0,0,0-.119-.075h-.06a.13.13,0,0,0-.12.08c-.568,1.271-1.143,2.566-1.706,3.849a.13.13,0,0,0,.007.126.132.132,0,0,0,.113.056h0l.495-.01a.2.2,0,0,0,.187-.132l.261-.6,1.669-.027.282.594a.188.188,0,0,0,.193.125l.492-.006a.135.135,0,0,0,.115-.06.13.13,0,0,0,0-.127c-.592-1.245-1.2-2.52-1.815-3.791m.417,2.588q-.533.007-1.065.018.253-.594.508-1.186.28.584.557,1.168"
                  transform="translate(-15.874 -61.331)" fill="#016e41"/>
            <path id="Path_702" data-name="Path 702"
                  d="M60.86,65.243h-.006a.539.539,0,0,0-.376.151.481.481,0,0,0-.146.351.493.493,0,0,0,.488.48h0a.576.576,0,0,0,.189-.035,1.09,1.09,0,0,1-.416.756l-.02.018a.146.146,0,0,0-.057.1.125.125,0,0,0,.034.092l.086.091a.134.134,0,0,0,.092.044.152.152,0,0,0,.083-.031,1.469,1.469,0,0,0,.649-1.254.835.835,0,0,0-.213-.6.562.562,0,0,0-.39-.161"
                  transform="translate(-16.966 -62.053)" fill="#016e41"/>
            <path id="Path_703" data-name="Path 703"
                  d="M68.728,61.4q-.674,0-1.348,0a.134.134,0,0,0-.1.039.136.136,0,0,0-.04.095v3.755a.134.134,0,0,0,.135.134H67.9a.137.137,0,0,0,.135-.134l0-1.306.686,0h0a1.306,1.306,0,0,0,1.3-1.3,1.255,1.255,0,0,0-.371-.9,1.311,1.311,0,0,0-.933-.39m.514,1.276a.565.565,0,0,1-.563.562h-.638V62.147h.639a.59.59,0,0,1,.413.168.5.5,0,0,1,.148.358"
                  transform="translate(-18.269 -61.328)" fill="#016e41"/>
            <path id="Path_704" data-name="Path 704"
                  d="M73.471,61.436a.126.126,0,0,0-.121-.078h-.058a.127.127,0,0,0-.12.076c-.613,1.278-1.22,2.557-1.808,3.8a.127.127,0,0,0,.119.186l.495,0h0a.2.2,0,0,0,.188-.127l.277-.595,1.671.017c.088.2.176.4.265.6a.194.194,0,0,0,.193.13l.489.006h0a.134.134,0,0,0,.114-.057.132.132,0,0,0,.007-.127c-.558-1.259-1.135-2.55-1.715-3.838m.348,2.6-1.065-.011q.269-.587.539-1.172.264.59.527,1.182"
                  transform="translate(-19.043 -61.32)" fill="#016e41"/>
            <path id="Path_705" data-name="Path 705"
                  d="M80.615,62.78a1.219,1.219,0,0,0-.344-.877,1.277,1.277,0,0,0-.9-.394q-.82-.017-1.64-.029h0a.135.135,0,0,0-.094.037.137.137,0,0,0-.041.094l-.06,3.755a.134.134,0,0,0,.037.095.135.135,0,0,0,.095.041l.523.009h0a.138.138,0,0,0,.135-.131l.024-1.42.591.011q.363.752.721,1.5a.126.126,0,0,0,.114.068l.6.012h0a.134.134,0,0,0,.118-.061.142.142,0,0,0,0-.14q-.368-.716-.738-1.431a1.274,1.274,0,0,0,.859-1.142m-.8,0a.555.555,0,0,1-.541.541h-.01l-.9-.016.019-1.076.907.016a.552.552,0,0,1,.383.17.509.509,0,0,1,.147.364"
                  transform="translate(-20.208 -61.344)" fill="#016e41"/>
            <path id="Path_706" data-name="Path 706"
                  d="M85.641,61.657c-.79-.024-1.574-.045-2.333-.063a.139.139,0,0,0-.1.038.135.135,0,0,0-.041.093l-.093,3.753a.138.138,0,0,0,.038.1.131.131,0,0,0,.093.041c.768.019,1.547.04,2.314.062h.006a.135.135,0,0,0,.134-.13l.014-.465a.139.139,0,0,0-.037-.1.135.135,0,0,0-.094-.041l-1.66-.046.025-.94L85.292,64h0a.135.135,0,0,0,.135-.13l.014-.471a.135.135,0,0,0-.038-.095.132.132,0,0,0-.093-.043l-1.386-.038.024-.877q.834.022,1.668.046a.135.135,0,0,0,.14-.13l.013-.465a.134.134,0,0,0-.131-.138"
                  transform="translate(-21.254 -61.365)" fill="#016e41"/>
            <path id="Path_707" data-name="Path 707"
                  d="M91.609,61.792l-.092,0a.129.129,0,0,0-.124.067c-.453.873-.9,1.745-1.341,2.6-.385-.906-.772-1.809-1.151-2.687a.128.128,0,0,0-.118-.075l-.091,0h-.006a.122.122,0,0,0-.127.1c-.262,1.227-.532,2.5-.8,3.787a.143.143,0,0,0,.025.118.136.136,0,0,0,.1.048l.512.016a.134.134,0,0,0,.131-.1q.2-1.039.393-2.078.456,1.1.909,2.211a.128.128,0,0,0,.118.08l.1,0h.006a.121.121,0,0,0,.118-.074c.349-.709.7-1.428,1.056-2.137q.124,1.05.246,2.1a.15.15,0,0,0,.13.11l.518.02h.006a.129.129,0,0,0,.1-.042.137.137,0,0,0,.028-.114c-.179-1.326-.355-2.616-.522-3.834a.122.122,0,0,0-.125-.113"
                  transform="translate(-22.136 -61.383)" fill="#016e41"/>
            <path id="Path_708" data-name="Path 708"
                  d="M96.723,62.069l-1.346-.061a.135.135,0,0,0-.141.128l-.163,3.751a.135.135,0,0,0,.128.14l.523.023h.006a.139.139,0,0,0,.09-.036.137.137,0,0,0,.045-.092l.058-1.306.686.032.06,0a1.307,1.307,0,0,0,1.3-1.241,1.257,1.257,0,0,0-.331-.91,1.312,1.312,0,0,0-.916-.431m.458,1.3a.557.557,0,0,1-.561.537h-.028l-.636-.028L96,62.807v-.02l.638.029a.585.585,0,0,1,.406.187.5.5,0,0,1,.132.363"
                  transform="translate(-23.516 -61.443)" fill="#016e41"/>
            <path id="Path_709" data-name="Path 709"
                  d="M100.965,62.278l-.533-.028a.136.136,0,0,0-.1.036.138.138,0,0,0-.045.091l-.192,3.75a.137.137,0,0,0,.127.14l.528.028h.006a.138.138,0,0,0,.135-.127l.2-3.749a.139.139,0,0,0-.128-.141"
                  transform="translate(-24.464 -61.489)" fill="#016e41"/>
            <path id="Path_710" data-name="Path 710"
                  d="M110.637,62.8l-.092-.006a.127.127,0,0,0-.126.064c-.463.829-.94,1.689-1.418,2.554-.353-.9-.713-1.818-1.07-2.72a.132.132,0,0,0-.116-.079l-.092-.006a.124.124,0,0,0-.136.1c-.307,1.254-.615,2.519-.916,3.762a.141.141,0,0,0,.022.118.135.135,0,0,0,.1.05l.511.032h.007a.137.137,0,0,0,.128-.1q.225-1.032.454-2.066.422,1.119.843,2.237a.13.13,0,0,0,.115.085l.1.006a.123.123,0,0,0,.126-.07c.362-.684.738-1.392,1.119-2.106q.093,1.054.183,2.111a.149.149,0,0,0,.127.113l.517.037h.012a.129.129,0,0,0,.1-.038.134.134,0,0,0,.03-.114c-.139-1.331-.277-2.625-.407-3.848a.122.122,0,0,0-.122-.117"
                  transform="translate(-25.703 -61.556)" fill="#016e41"/>
            <path id="Path_711" data-name="Path 711"
                  d="M114.932,63.164l-.531-.04a.14.14,0,0,0-.1.034.133.133,0,0,0-.047.091l-.274,3.744a.13.13,0,0,0,.032.1.141.141,0,0,0,.092.048l.528.039h.009a.139.139,0,0,0,.136-.124q.139-1.871.279-3.744a.135.135,0,0,0-.033-.1.137.137,0,0,0-.092-.047"
                  transform="translate(-27.082 -61.654)" fill="#016e41"/>
            <path id="Path_712" data-name="Path 712"
                  d="M119.812,63.547c-.771-.063-1.554-.127-2.328-.187a.134.134,0,0,0-.145.123l-.293,3.742a.136.136,0,0,0,.032.1.131.131,0,0,0,.092.046c.751.059,1.529.122,2.31.187h.011a.134.134,0,0,0,.086-.032.13.13,0,0,0,.047-.091l.039-.463a.138.138,0,0,0-.032-.1.135.135,0,0,0-.092-.047q-.828-.068-1.656-.135l.075-.937,1.38.112h.011a.135.135,0,0,0,.134-.123l.039-.469a.138.138,0,0,0-.123-.144l-1.383-.112.07-.875q.833.066,1.664.135a.133.133,0,0,0,.1-.031.137.137,0,0,0,.047-.091l.039-.464a.136.136,0,0,0-.124-.144"
                  transform="translate(-27.66 -61.698)" fill="#016e41"/>
            <path id="Path_713" data-name="Path 713"
                  d="M124.3,67.234l-1.422-.127.275-3.144a.131.131,0,0,0-.032-.1.139.139,0,0,0-.091-.049l-.526-.045a.14.14,0,0,0-.1.031.136.136,0,0,0-.048.091l-.321,3.741a.135.135,0,0,0,.123.145q1.038.089,2.076.183h.012a.133.133,0,0,0,.085-.03.137.137,0,0,0,.049-.092l.041-.463a.134.134,0,0,0-.122-.145"
                  transform="translate(-28.601 -61.776)" fill="#016e41"/>
            <path id="Path_714" data-name="Path 714"
                  d="M127.558,64.271a.137.137,0,0,0-.091-.049l-.531-.05a.141.141,0,0,0-.1.032.133.133,0,0,0-.048.089l-.348,3.738a.138.138,0,0,0,.122.146l.527.049h.011a.139.139,0,0,0,.135-.122l.353-3.737a.134.134,0,0,0-.031-.1"
                  transform="translate(-29.431 -61.851)" fill="#016e41"/>
        </g>
    </g>
</svg>
