<svg width="600" height="124" viewBox="0 0 600 124" fill="none" xmlns="http://www.w3.org/2000/svg">
<path d="M234.5 121.6H209.2V113.7C201.6 120.2 191.9 123.7 181.9 123.6C167.8 123.6 154.3 117.6 144.9 107C136.7 97.4 132.3 85.2 132.4 72.7C132.4 43.8 153.8 21.6 180.5 21.6C190.9 21.5 201.1 25 209.2 31.5V23.6H234.5V121.6ZM208.3 57.9C202.6 50.2 193.6 45.7 184 45.8C168.6 45.8 158.7 58.5 158.7 72.7C158.7 88 169.8 99.4 184.6 99.4C194 99.5 202.8 94.9 208.2 87.3L208.3 57.9Z" fill="#6491F5"/>
<path d="M254.9 91.7001C261.6 97.8001 271.9 101.4 281.8 101.4C288.9 101.4 294.3 98.0001 294.3 93.1001C294.3 78.3001 246.8 83.6001 246.8 52.1001C246.8 33.3001 265 21.6001 284.4 21.6001C297.1 21.6001 311.1 26.5001 317.5 31.5001L305.2 50.5001C299.8 46.4001 293.2 44.1001 286.4 43.8001C279.1 43.8001 273.1 46.6001 273.1 51.7001C273.1 64.4001 320.6 59.4001 320.6 93.3001C320.6 112.1 302.2 123.6 281.6 123.6C267.4 123.4 253.7 118.8 242.3 110.5L254.9 91.7001Z" fill="#6491F5"/>
<path d="M423.1 23.6V121.6H397.9V113.7C390.6 120.2 381.2 123.7 371.4 123.6C358.5 123.6 346.2 117.8 338.1 107.8C331.8 100.1 328.2 90 328.2 75.5V23.5H354.5V76.4C354.5 85.3 356.3 89.7 359.3 93.2C363.1 97.2 368.5 99.4 374 99.3C385.1 99.3 393.2 91.8 396.8 87.2V23.6H423.1Z" fill="#6491F5"/>
<path d="M436.2 121.6V23.6H461.4V31.5C468.7 25 478.1 21.5 487.9 21.6C500.6 21.6 512.7 27.2 520.8 37C529.8 27.4 542.4 21.8 555.6 21.6C568.8 21.5 581.4 27.3 589.9 37.4C596.2 45.1 599.8 55.2 599.8 69.7V121.6H573.6V68.7C573.6 59.8 571.8 55.4 568.7 51.9C564.9 47.9 559.5 45.7 554 45.8C542.7 45.8 533.8 53.7 530.4 58.7C530.9 62.3 531.2 65.9 531.2 69.6V121.6H504.9V68.7C504.9 59.8 503.1 55.4 500 51.9C496.2 47.9 490.8 45.7 485.3 45.8C474.2 45.8 466.1 53.3 462.5 57.9V121.5H436.2V121.6Z" fill="#6491F5"/>
<path d="M72.4 67.9V89.6L92.4 87.1C85 94.4 75.3 99.7 63.3 99.7C41.3 99.7 26.6 82.1 26.6 61.5C26.5 41.5 42.7 25.2 62.7 25.1C62.8 25.1 62.8 25.1 62.9 25.1C78.2 25.1 91.8 35.1 96.3 49.8H123.8C118.5 20.9 94.3 0 63.1 0C28.3 0 0 24.6 0 61.3C0 96.3 26.3 123.5 61.6 123.5C81.4 123.5 95.3 116.9 104.9 105.6L103.8 121.5H124.1V67.8H72.4V67.9Z" fill="#6491F5"/>
</svg>
