<svg xmlns="http://www.w3.org/2000/svg" width="153.488" height="40.311" viewBox="0 0 153.488 40.311"><defs><clipPath id="a"><path fill="#fff" d="M0 0h153.488v40.311H0z"/></clipPath></defs><g clip-path="url(#a)" fill="#fff"><path data-name="Path 1" d="M110.254 3.937c-2.632 0-4.449 1.972-4.449 5.634s1.818 5.634 4.449 5.634 4.452-1.974 4.452-5.634-1.818-5.634-4.452-5.634m0 15.205c-4.967 0-9.312-3.172-9.312-9.571S105.394 0 110.359 0s9.206 3.17 9.206 9.571-4.344 9.571-9.312 9.571M50.471 9.571c0 3.66-1.815 5.634-4.449 5.634s-4.454-1.974-4.454-5.634 1.822-5.634 4.454-5.634 4.449 1.972 4.449 5.634m4.862 0C55.331 3.17 51.092 0 46.125 0s-9.417 3.17-9.417 9.571 4.344 9.571 9.312 9.571 9.311-3.172 9.311-9.571M128.855 40h4.531V21.455h-4.531zm-17.879-18.545h4.531v8.4l6.247-8.4h4.805l-5.714 7.439L126.89 40h-4.935l-4.3-7.906-2.149 2.5V40h-4.531zM92.156 40h4.175V29.1h.05l7.062 10.9h4.195V21.455h-4.173v10.483h-.05l-6.882-10.483h-4.377zm-7.857-18.545h4.528V40h-4.528zm-9.807 18.856c3.718 0 7.263-2.028 7.263-6.058 0-2.888-1.747-4.477-4.329-5.151l-2.834-.778c-1.368-.366-2.456-.729-2.456-1.8 0-1.275 1.139-1.744 2.456-1.744a4.64 4.64 0 013.769 1.744l2.935-2.5c-1.416-1.977-3.591-2.886-6.781-2.886-4 0-6.807 2.5-6.807 5.957 0 2.99 1.824 4.447 4.276 5.122l3.113.833c1.115.311 2.026.729 2.026 1.873 0 1.3-1.468 1.744-2.834 1.744a5.672 5.672 0 01-4.581-2.342l-2.86 2.626c1.721 2.473 4.48 3.355 7.643 3.355m-19.81-18.851h4.531V36.2h6.359V40h-10.89zM38.644 40h12.988v-3.8h-8.461v-3.691h7.015v-3.743h-7.015v-3.54h8.407v-3.77H38.644zM20.383 21.455h4.528v7.128h5.87v-7.128h4.531V40h-4.531v-7.387h-5.87V40h-4.528zm101.488-2.612h4.528v-6.7h6.987V8.371h-6.987V4.07h6.983V.3h-11.511zM79.297 4.019h-5.11V.3h14.751v3.719h-5.11v14.824h-4.531zM62.271 8.856V3.94h3.016a2.324 2.324 0 012.632 2.446 2.366 2.366 0 01-2.632 2.471zm-4.533 9.986h4.533v-6.554h2.283l3.569 6.555h4.932l-4.125-7.229a5.7 5.7 0 003.394-5.463C72.323 2.719 69.971.3 65.871.3h-8.134zM28.059 8.856a2.389 2.389 0 002.628-2.471 2.341 2.341 0 00-2.652-2.445h-3.121v4.916zM20.383.3h8.409c4 0 6.3 2.525 6.3 5.957a5.826 5.826 0 01-6.221 6.164h-3.957v6.421h-4.531z"/><path data-name="Path 2" d="M145.112 40h-4.531V.298h4.531zM153.488.298h-4.531v39.7h4.531zM4.531.298H0v39.7h4.531zm8.376 39.7H8.376V.298h4.531z"/></g></svg>