<svg viewBox="0 0 240 69" fill="#FF3200" xmlns="http://www.w3.org/2000/svg">
    <path d="M121.79 13.9314H127.076C126.016 16.5347 125.137 18.8063 124.425 20.7629C123.712 22.7196 122.734 25.4555 121.508 28.9873C121.293 29.6672 121.077 30.2973 120.895 30.8445C120.713 31.3917 120.53 31.8725 120.381 32.2871H114.1C113.951 31.8725 113.769 31.3917 113.587 30.8445C113.404 30.2973 113.189 29.6838 112.973 28.9873C111.747 25.4555 110.769 22.7196 110.057 20.7629C109.344 18.8063 108.449 16.5347 107.405 13.9314H112.692C114.117 18.9721 115.641 24.1953 117.249 28.5562C118.84 24.2119 120.365 18.9887 121.79 13.9314ZM139.075 19.5193C139.075 18.939 138.776 18.4415 138.196 18.0436C137.616 17.6456 136.705 17.4632 135.479 17.4632C134.004 17.4632 132.628 17.8612 131.335 18.6405C130.043 19.4198 128.932 20.5805 127.988 22.0895L128.435 17.0155C128.485 16.4352 128.7 15.9377 129.098 15.5398C129.811 14.8765 130.722 14.3293 131.849 13.8982C132.976 13.4671 134.302 13.2515 135.843 13.2515C138.263 13.2515 140.185 13.9148 141.594 15.2579C143.002 16.601 143.698 18.541 143.698 21.1112L143.665 24.3445C143.649 24.8088 143.632 25.4058 143.632 26.1022C143.632 28.6723 143.649 30.7284 143.698 32.2705H139.141L139.29 29.1863C139.075 30.1646 138.445 31.0435 137.434 31.7896C136.423 32.5524 135.131 32.9337 133.556 32.9337C131.717 32.9337 130.209 32.4197 129.015 31.3751C127.822 30.3304 127.242 28.9708 127.242 27.2795C127.242 25.4223 127.839 23.9797 129.048 22.9517C130.242 21.9236 131.849 21.4096 133.854 21.4096C135.793 21.4096 137.136 21.2936 137.915 21.0448C138.677 20.8127 139.075 20.2987 139.075 19.5193ZM137.567 24.5767C136.837 24.842 135.843 24.9746 134.6 24.9746C133.639 24.9746 132.91 25.1404 132.413 25.5052C131.915 25.8535 131.667 26.3509 131.667 26.9976C131.667 27.6442 131.899 28.1251 132.38 28.4402C132.86 28.7552 133.506 28.921 134.302 28.921C135.992 28.8879 137.252 28.407 138.064 27.4453C138.876 26.4835 139.29 25.041 139.29 23.1175C138.876 23.8139 138.296 24.2948 137.567 24.5767ZM152.15 32.3036C152.051 29.9822 152.001 26.9147 152.001 23.1175V21.4262C152.217 20.2821 152.697 19.3535 153.41 18.6571C154.139 17.9607 155.084 17.6125 156.26 17.6125C157.487 17.6125 158.431 18.0104 159.127 18.7898C159.807 19.5691 160.155 20.6303 160.155 21.9402V23.1175C160.155 26.9147 160.105 29.9657 160.006 32.3036H164.629C164.53 29.9822 164.48 26.9147 164.48 23.1175V20.5474C164.48 18.226 163.9 16.4352 162.723 15.175C161.547 13.9148 160.006 13.2847 158.1 13.2847C156.393 13.2847 155.017 13.6992 153.99 14.5117C152.962 15.3242 152.283 16.4683 151.935 17.9109L152.084 13.948H147.527C147.626 16.3025 147.676 19.3535 147.676 23.1341C147.676 26.9312 147.626 29.9822 147.527 32.3202H152.15V32.3036ZM175.467 32.9669C177.224 32.9669 178.616 32.6187 179.644 31.9388C179.909 31.7399 180.091 31.5575 180.191 31.3751C180.29 31.1927 180.356 30.9108 180.373 30.546L180.671 25.3228C179.693 27.5282 178.152 28.6226 176.048 28.6226C173.595 28.6226 172.368 27.2463 172.368 24.5104V18.0436H179.71V13.9314H172.368C172.368 13.2018 172.402 12.6546 172.402 12.323C172.402 11.925 172.402 11.3281 172.402 10.3332H167.927C167.927 10.9467 167.894 23.0512 167.894 24.5104C167.894 27.2795 168.573 29.3687 169.949 30.8113C171.341 32.2373 173.164 32.9669 175.467 32.9669ZM235.376 32.3036H240C239.901 29.9822 239.851 26.9147 239.851 23.1175V20.5474C239.851 18.226 239.271 16.4352 238.094 15.175C236.918 13.9148 235.376 13.2847 233.471 13.2847C231.764 13.2847 230.388 13.6992 229.361 14.5117C228.333 15.3242 227.654 16.4683 227.306 17.9109L227.455 13.948H222.897C222.997 16.3025 223.047 19.3535 223.047 23.1341C223.047 26.9312 222.997 29.9822 222.897 32.3202H227.521C227.422 29.9988 227.372 26.9312 227.372 23.1341V21.4428C227.587 20.2987 228.068 19.3701 228.781 18.6737C229.51 17.9773 230.454 17.6291 231.631 17.6291C232.857 17.6291 233.802 18.027 234.498 18.8063C235.177 19.5857 235.525 20.6469 235.525 21.9568V23.1341C235.509 26.9147 235.459 29.9657 235.376 32.3036ZM125.137 43.9272C125.784 45.403 126.115 46.9451 126.115 48.5866V50.0624H112.211C112.526 51.5879 113.222 52.6822 114.283 53.3621C115.343 54.0419 116.619 54.3901 118.111 54.3901C119.95 54.3901 121.425 54.1083 122.552 53.5445C123.679 52.9807 124.491 52.2843 124.972 51.4552L124.491 55.6337C124.392 56.3136 124.143 56.7944 123.762 57.0598C123.149 57.5075 122.403 57.8722 121.525 58.1873C120.646 58.4858 119.403 58.6516 117.812 58.6516C115.641 58.6516 113.769 58.2039 112.211 57.3251C110.653 56.4462 109.477 55.2524 108.665 53.76C107.853 52.2677 107.455 50.6096 107.455 48.8022C107.455 46.8456 107.869 45.1211 108.698 43.6288C109.526 42.1364 110.686 40.9923 112.145 40.1798C113.62 39.3673 115.277 38.9694 117.133 38.9694C119.138 38.9694 120.812 39.4337 122.138 40.3456C123.497 41.2742 124.491 42.4681 125.137 43.9272ZM121.409 46.5305C121.259 45.5025 120.795 44.6734 120.033 44.0267C119.254 43.3966 118.31 43.065 117.15 43.065C115.824 43.065 114.747 43.38 113.918 44.0101C113.089 44.6402 112.526 45.4693 112.228 46.5305H121.409ZM145.72 46.2486C145.72 43.9272 145.14 42.1364 143.964 40.8597C142.787 39.5995 141.246 38.9694 139.34 38.9694C137.633 38.9694 136.257 39.3839 135.23 40.1964C134.202 41.0089 133.523 42.153 133.175 43.5956L133.324 39.6326H128.767C128.866 41.9872 128.916 45.0382 128.916 48.8188C128.916 52.6159 128.866 55.6669 128.767 58.0049H133.39C133.291 55.6835 133.241 52.6159 133.241 48.8188V47.1275C133.457 45.9833 133.937 45.0548 134.65 44.3584C135.379 43.6619 136.324 43.3137 137.5 43.3137C138.727 43.3137 139.671 43.7117 140.367 44.491C141.047 45.2703 141.395 46.3315 141.395 47.6415V48.8188C141.395 52.6159 141.345 55.6669 141.246 58.0049H145.869C145.77 55.6835 145.72 52.6159 145.72 48.8188V46.2486ZM166.286 43.9272C166.933 45.403 167.264 46.9451 167.264 48.5866V50.0624H153.36C153.675 51.5879 154.371 52.6822 155.432 53.3621C156.492 54.0419 157.768 54.3901 159.26 54.3901C161.099 54.3901 162.574 54.1083 163.701 53.5445C164.828 52.9807 165.64 52.2843 166.121 51.4552L165.64 55.6337C165.541 56.3136 165.292 56.7944 164.911 57.0598C164.298 57.5075 163.552 57.8722 162.674 58.1873C161.795 58.4858 160.552 58.6516 158.961 58.6516C156.79 58.6516 154.918 58.2039 153.36 57.3251C151.802 56.4462 150.626 55.2524 149.814 53.76C149.002 52.2677 148.604 50.6096 148.604 48.8022C148.604 46.8456 149.018 45.1211 149.847 43.6288C150.675 42.1364 151.835 40.9923 153.294 40.1798C154.769 39.3673 156.426 38.9694 158.282 38.9694C160.287 38.9694 161.961 39.4337 163.287 40.3456C164.646 41.2742 165.64 42.4681 166.286 43.9272ZM162.558 46.5305C162.409 45.5025 161.944 44.6734 161.182 44.0267C160.403 43.3966 159.459 43.065 158.299 43.065C156.973 43.065 155.896 43.38 155.067 44.0101C154.238 44.6402 153.675 45.4693 153.377 46.5305H162.558ZM183.787 40.3954C183.671 40.2462 183.522 40.0969 183.323 39.9145C182.511 39.2844 181.417 38.9528 180.025 38.9528C178.649 38.9528 177.473 39.3342 176.478 40.0969C175.484 40.8597 174.805 41.8877 174.44 43.1811L174.589 39.6161H169.883C169.982 41.9706 170.032 45.0216 170.032 48.8022C170.032 52.5662 169.982 55.6337 169.883 57.9883H174.589C174.49 56.2473 174.44 53.1963 174.44 48.8022V47.5917C174.788 46.3647 175.368 45.4362 176.18 44.7895C176.992 44.1428 178.036 43.8112 179.279 43.8112C180.505 43.8112 181.533 44.1096 182.378 44.7066C183.223 45.3035 183.853 46.1326 184.267 47.1938L183.969 41.0255C183.969 40.7602 183.903 40.5446 183.787 40.3954ZM204.121 39.6326C204.038 41.7551 203.988 44.6071 203.988 48.1721L204.022 53.644C204.038 54.0751 204.055 54.556 204.055 55.0866C204.055 58.3531 203.259 60.8072 201.668 62.4487C200.077 64.0903 197.857 64.9194 195.039 64.9194C193.697 64.9194 192.487 64.7535 191.427 64.4053C190.366 64.0571 189.537 63.6592 188.957 63.2115C188.758 63.0457 188.593 62.8798 188.477 62.6809C188.361 62.4819 188.294 62.2332 188.278 61.9181L187.731 56.9271C188.444 58.1375 189.405 59.0827 190.648 59.7791C191.891 60.4755 193.216 60.8237 194.625 60.8237C196.315 60.8237 197.608 60.376 198.52 59.4806C199.431 58.5852 199.878 57.2587 199.878 55.5011V53.8595C199.464 54.8378 198.801 55.6172 197.857 56.1975C196.929 56.7779 195.752 57.0763 194.343 57.0763C192.719 57.0763 191.277 56.7115 190.001 55.9654C188.725 55.2192 187.731 54.158 187.018 52.7817C186.306 51.4055 185.941 49.8137 185.941 48.0063C185.941 46.2486 186.306 44.69 187.052 43.3303C187.797 41.9706 188.792 40.9094 190.068 40.1467C191.344 39.4005 192.769 39.0191 194.343 39.0191C195.752 39.0191 196.945 39.301 197.906 39.8648C198.868 40.4286 199.53 41.1747 199.878 42.1033L199.812 39.6492H204.121V39.6326ZM199.845 48.0063C199.845 46.5139 199.398 45.2869 198.503 44.3418C197.625 43.3966 196.448 42.8992 195.039 42.8992C193.614 42.8992 192.471 43.38 191.576 44.3418C190.681 45.3035 190.233 46.5305 190.233 48.0063C190.233 49.4986 190.681 50.7256 191.576 51.6708C192.471 52.6325 193.614 53.1134 195.039 53.1134C196.465 53.1134 197.608 52.6325 198.503 51.6708C199.398 50.7256 199.845 49.4986 199.845 48.0063ZM207.618 39.6326C207.717 41.9872 207.767 45.0382 207.767 48.8188C207.767 52.6159 207.717 55.6669 207.618 58.0049H212.324C212.225 55.7498 212.175 52.6988 212.175 48.8188C212.175 45.0548 212.225 41.9872 212.324 39.6326H207.618ZM91.2968 32.8177C90.2362 39.3508 87.5349 45.9999 82.7786 50.9578C74.0119 60.2268 58.1025 63.9411 48.0597 56.9934C36.8899 63.7255 25.2065 68.3186 16.0751 68.9155C4.92197 69.6285 -3.28131 65.9806 2.94987 52.2014C7.04323 43.1479 15.5614 31.7399 22.5715 22.4045C27.6592 15.6227 28.5375 13.1355 27.4934 12.8536C25.3059 12.2235 17.0197 16.6673 10.2251 20.9288C4.55738 24.4772 0 27.9427 0 27.9427C0 27.9427 2.73443 24.5269 7.32495 20.2489C12.1143 15.8051 18.8924 10.4659 23.8973 8.22737C29.333 5.77331 35.3984 6.33708 35.183 11.5602C34.9841 16.3025 31.2719 22.6532 21.5771 39.2347C18.9753 43.6785 15.5614 49.6478 14.451 53.5113C14.103 54.7218 13.9704 55.6503 14.335 55.8825C14.5836 56.0317 15.0808 56.0317 15.2797 56.0317C19.1244 55.9322 24.9413 54.1414 29.0015 52.4169C33.3435 50.5764 37.0059 48.7193 40.4198 46.7129C36.3928 35.9184 39.4918 22.504 46.9659 13.2184C53.9263 5.06031 64.4994 -0.859274 75.1388 0.10245C86.0931 1.08076 87.5017 11.5105 84.2038 19.9173C80.3756 30.5128 69.5705 41.9872 56.8927 51.1899C60.5717 53.6606 68.1784 52.931 72.1061 51.6874C81.138 48.8022 87.6012 41.2576 91.2968 32.8177ZM49.3026 40.8431C50.1975 40.1964 51.0924 39.5332 52.0204 38.8367C58.7654 33.597 70.2002 21.8905 71.642 13.4837C71.7249 12.9365 71.9735 11.7095 70.7471 11.2452C68.311 10.3332 57.7047 13.1852 51.7884 24.5601C50.1975 27.6277 49.0209 31.7896 48.822 35.4873C48.7226 37.361 48.9048 39.2347 49.3026 40.8431ZM189.206 32.9669C187.366 32.9669 185.858 32.4529 184.665 31.4082C183.472 30.3636 182.892 29.0039 182.892 27.3126C182.892 25.4555 183.488 24.0129 184.698 22.9849C185.891 21.9568 187.499 21.4428 189.504 21.4428C191.443 21.4428 192.786 21.3267 193.564 21.078C194.327 20.8293 194.724 20.3152 194.724 19.5359C194.724 18.9556 194.426 18.4581 193.846 18.0602C193.266 17.6622 192.355 17.4798 191.128 17.4798C189.653 17.4798 188.278 17.8778 186.985 18.6571C185.693 19.4364 184.582 20.5971 183.638 22.106L184.085 17.0321C184.135 16.4518 184.35 15.9543 184.748 15.5564C185.461 14.8931 186.372 14.3459 187.499 13.9148C188.626 13.4837 189.952 13.2681 191.493 13.2681C193.912 13.2681 195.835 13.9314 197.243 15.2745C198.652 16.6176 199.348 18.5576 199.348 21.1277L199.315 24.3611C199.298 24.8254 199.282 25.4223 199.282 26.1188C199.282 28.6889 199.298 30.745 199.348 32.2871H194.791L194.94 29.2029C194.724 30.1812 194.095 31.06 193.084 31.8062C192.073 32.5855 190.78 32.9669 189.206 32.9669ZM188.013 28.4402C188.493 28.7552 189.14 28.921 189.935 28.921C191.625 28.8879 192.885 28.407 193.697 27.4453C194.509 26.4835 194.923 25.041 194.923 23.1175C194.509 23.8139 193.929 24.2948 193.2 24.5601C192.471 24.8254 191.476 24.9581 190.233 24.9581C189.272 24.9581 188.543 25.1239 188.046 25.4887C187.549 25.8369 187.3 26.3343 187.3 26.981C187.3 27.6277 187.532 28.1085 188.013 28.4402ZM214.512 32.3036L214.661 29.2195C214.446 30.1978 213.816 31.0766 212.805 31.8228C211.794 32.5855 210.501 32.9669 208.927 32.9669C207.087 32.9669 205.579 32.4529 204.386 31.4082C203.193 30.3636 202.613 29.0039 202.613 27.3126C202.613 25.4555 203.21 24.0129 204.419 22.9849C205.612 21.9568 207.22 21.4428 209.225 21.4428C211.164 21.4428 212.507 21.3267 213.285 21.078C214.048 20.8293 214.446 20.3152 214.446 19.5359C214.446 18.9556 214.147 18.4581 213.567 18.0602C212.987 17.6622 212.076 17.4798 210.849 17.4798C209.374 17.4798 207.999 17.8778 206.706 18.6571C205.414 19.4364 204.303 20.5971 203.359 22.106L203.806 17.0321C203.856 16.4518 204.071 15.9543 204.469 15.5564C205.182 14.8931 206.093 14.3459 207.22 13.9148C208.347 13.4837 209.673 13.2681 211.214 13.2681C213.633 13.2681 215.556 13.9314 216.964 15.2745C218.373 16.6176 219.069 18.5576 219.069 21.1277L219.036 24.3611C219.019 24.8254 219.003 25.4223 219.003 26.1188C219.003 28.6889 219.019 30.745 219.069 32.2871H214.512V32.3036ZM214.661 23.1175C214.247 23.8139 213.667 24.2948 212.937 24.5601C212.208 24.8254 211.214 24.9581 209.971 24.9581C209.01 24.9581 208.281 25.1239 207.783 25.4887C207.286 25.8369 207.038 26.3343 207.038 26.981C207.038 27.6277 207.27 28.1085 207.75 28.4236C208.231 28.7386 208.877 28.9044 209.673 28.9044C211.363 28.8713 212.623 28.3904 213.435 27.4287C214.247 26.5001 214.661 25.0575 214.661 23.1175ZM231.648 50.0624C231.631 50.5267 231.614 51.1236 231.614 51.82C231.614 54.3901 231.631 56.4462 231.681 57.9883H227.123L227.272 54.9042C227.057 55.8825 226.427 56.7613 225.416 57.5074C224.405 58.2702 223.113 58.6516 221.538 58.6516C219.699 58.6516 218.191 58.1375 216.998 57.0929C215.804 56.0483 215.224 54.6886 215.224 52.9973C215.224 51.1402 215.821 49.6976 217.031 48.6695C218.224 47.6415 219.832 47.1275 221.837 47.1275C223.776 47.1275 225.118 47.0114 225.897 46.7627C226.659 46.5139 227.057 45.9999 227.057 45.2206C227.057 44.6402 226.759 44.1428 226.179 43.7448C225.599 43.3469 224.687 43.1645 223.461 43.1645C221.986 43.1645 220.61 43.5624 219.318 44.3418C218.025 45.1211 216.915 46.2818 215.97 47.7907L216.418 42.7168C216.467 42.1364 216.683 41.639 217.081 41.241C217.793 40.5778 218.705 40.0306 219.832 39.5995C220.958 39.1684 222.284 38.9528 223.825 38.9528C226.245 38.9528 228.167 39.6161 229.576 40.9592C230.985 42.2857 231.681 44.2423 231.681 46.8124L231.648 50.0624ZM227.289 48.8188C226.875 49.5152 226.295 49.9961 225.566 50.2614C224.836 50.5267 223.842 50.6593 222.599 50.6593C221.638 50.6593 220.909 50.8251 220.412 51.1733C219.914 51.5215 219.666 52.019 219.666 52.6657C219.666 53.3123 219.898 53.7932 220.378 54.1083C220.859 54.4233 221.505 54.5891 222.301 54.5891C223.991 54.556 225.251 54.0751 226.063 53.1134C226.875 52.1848 227.289 50.7422 227.289 48.8188Z"></path>
  </svg>